<svg xmlns="http://www.w3.org/2000/svg" viewBox="0 0 64 64">
<style type="text/css">
*{fill:none;stroke:#fff;stroke-width:1.5;}
</style>
<path d="M32,16c-8.8,0-16,3.6-16,8c0,0,14.3,0,32,0C48,19.6,40.8,16,32,16z"/>
<path d="M31.6,44.1c-8.8,0-16-3.6-16-8c0,0,14.3,0,32,0C47.6,40.5,40.4,44.1,31.6,44.1z"/>
<path d="M50,36H14c-1.1,0-2-0.9-2-2v-4c0-1.1,0.9-2,2-2h36c1.1,0,2,0.9,2,2v4C52,35.1,51.1,36,50,36z"/>
<path d="M49.6,28h-36c-1.1,0-2-0.9-2-2v0c0-1.1,0.9-2,2-2h36c1.1,0,2,0.9,2,2v0C51.6,27.1,50.7,28,49.6,28z"/>
<line x1="24" y1="36" x2="24" y2="28"/>
<line x1="40" y1="28" x2="40" y2="24"/>
</svg>